<svg xmlns="http://www.w3.org/2000/svg" width="32" height="22" viewBox="0 0 32 22"><g><g><path fill="#c2c2c2" d="M31.198 19.1c0 1.494-1.206 2.7-2.7 2.7H3.28a2.696 2.696 0 0 1-2.7-2.7V2.9C.58 1.406 1.786.2 3.28.2h25.218c1.494 0 2.7 1.206 2.7 2.7zM27.13 2.828L15.88 11.9 4.648 2.828c-.504-.432-1.116-.72-1.71-.126-.594.594-.27 1.206.054 1.512L10.3 10.91l-7.02 7.308c-.216.252-.36.648-.108.918.234.288.774.27 1.008.09l7.866-6.714 3.834 3.51 3.852-3.51 7.866 6.714c.234.18.774.198 1.008-.09.252-.27.108-.666-.108-.918l-7.02-7.308 7.308-6.696c.324-.306.648-.918.054-1.512s-1.206-.306-1.71.126z"/></g></g></svg>