<svg xmlns="http://www.w3.org/2000/svg" width="38" height="56" viewBox="0 0 38 56"><g><g><path fill="#c2c2c2" d="M27.032 0c5.71 0 10.302 4.79 10.302 10.659a10.764 10.764 0 0 1-4.31 8.67A10.757 10.757 0 0 1 37.334 28c0 5.868-4.593 10.659-10.302 10.661a10.05 10.05 0 0 1-6.428-2.331v9.011C20.604 51.21 16.009 56 10.302 56 4.592 56 0 51.21 0 45.341a10.764 10.764 0 0 1 4.31-8.67C1.699 34.736 0 31.57 0 28a10.764 10.764 0 0 1 4.31-8.67C1.699 17.394 0 14.225 0 10.658 0 4.79 4.592 0 10.302 0zm-16.73 17.344h6.428V3.974h-6.428c-3.533 0-6.43 2.972-6.43 6.685 0 3.71 2.897 6.685 6.43 6.685zm16.73-.003c3.535 0 6.43-2.972 6.43-6.682 0-3.713-2.895-6.688-6.43-6.688h-6.429v13.37zM3.872 28c0 3.71 2.895 6.685 6.43 6.685h6.43v-13.37h-6.428c-3.533 0-6.43 2.975-6.43 6.685zm16.734 0c0 3.712 2.895 6.685 6.428 6.685 3.535 0 6.43-2.975 6.43-6.685 0-3.712-2.895-6.685-6.43-6.685-3.533 0-6.43 2.975-6.43 6.685zM3.873 45.341c0 3.713 2.898 6.685 6.431 6.685 3.535 0 6.429-2.972 6.429-6.685V38.66h-6.429c-3.533 0-6.43 2.972-6.43 6.682z"/></g></g></svg>