<svg xmlns="http://www.w3.org/2000/svg" width="33" height="33" viewBox="0 0 33 33"><g><g><path fill="#c2c2c2" d="M9.697.099C11.457.018 12.018 0 16.5 0c4.482 0 5.043.02 6.801.099 1.758.08 2.958.36 4.008.766a8.118 8.118 0 0 1 2.922 1.905 8.06 8.06 0 0 1 1.902 2.921c.408 1.05.687 2.25.768 4.005.081 1.763.099 2.324.099 6.804 0 4.482-.02 5.043-.099 6.803-.08 1.755-.36 2.955-.768 4.005a8.094 8.094 0 0 1-1.902 2.923 8.09 8.09 0 0 1-2.922 1.902c-1.05.408-2.25.687-4.005.768-1.761.081-2.322.099-6.804.099s-5.043-.02-6.803-.099c-1.754-.08-2.954-.36-4.004-.768a8.096 8.096 0 0 1-2.924-1.902 8.088 8.088 0 0 1-1.904-2.922C.46 26.259.18 25.059.1 23.304.018 21.542 0 20.981 0 16.5c0-4.482.02-5.043.099-6.801.08-1.758.36-2.958.766-4.008A8.094 8.094 0 0 1 2.77 2.769 8.088 8.088 0 0 1 5.691.865C6.741.46 7.941.18 9.696.1zm13.47 2.97c-1.74-.08-2.262-.096-6.667-.096-4.405 0-4.928.017-6.668.096-1.609.073-2.482.342-3.064.569-.77.3-1.32.655-1.897 1.233a5.118 5.118 0 0 0-1.234 1.897c-.226.582-.495 1.455-.568 3.064-.08 1.74-.096 2.262-.096 6.668 0 4.405.017 4.928.096 6.668.073 1.609.342 2.482.569 3.064a5.122 5.122 0 0 0 1.233 1.897 5.122 5.122 0 0 0 1.897 1.233c.582.227 1.455.496 3.064.569 1.74.08 2.261.096 6.668.096s4.928-.017 6.668-.096c1.609-.073 2.482-.342 3.064-.569.77-.3 1.32-.655 1.897-1.232a5.122 5.122 0 0 0 1.233-1.898c.227-.582.496-1.455.569-3.064.08-1.74.096-2.262.096-6.668 0-4.405-.017-4.928-.096-6.668-.073-1.609-.342-2.482-.569-3.064-.3-.77-.655-1.32-1.232-1.897a5.12 5.12 0 0 0-1.898-1.234c-.582-.226-1.455-.495-3.064-.568zM18.1 21.774a5.504 5.504 0 0 0 2.293-9.167 5.505 5.505 0 1 0-6 8.98 5.504 5.504 0 0 0 3.707.187zm-7.597-11.271a8.481 8.481 0 1 1 11.994 11.994 8.481 8.481 0 0 1-11.994-11.994zm14.954-.675a2.006 2.006 0 1 1 .058-4.01 2.006 2.006 0 0 1-.058 4.01z"/></g></g></svg>