<svg xmlns="http://www.w3.org/2000/svg" width="50" height="50" viewBox="0 0 50 50"><g><g><path fill="#c2c2c2" d="M49.5.5v49H.5V.5zM27.166 22.998h-4.604V38.65c0 2.307-.962 2.898-2.47 2.898-1.586 0-2.242-1.083-2.965-2.362l-3.752 2.264c1.094 2.308 3.227 4.21 6.912 4.21 4.08 0 6.88-2.176 6.88-6.945zm10.894 22.66c4.365 0 7.625-2.273 7.625-6.408 0-3.848-2.198-5.567-6.114-7.24l-1.148-.491c-1.98-.865-2.834-1.421-2.834-2.8 0-1.115.854-1.969 2.198-1.969 1.323 0 2.177.558 2.965 1.969l3.587-2.298c-1.51-2.669-3.61-3.686-6.541-3.686-4.102 0-6.738 2.625-6.738 6.082 0 3.752 2.198 5.535 5.523 6.945l1.148.492c2.11.93 3.358 1.488 3.358 3.063 0 1.323-1.226 2.275-3.128 2.275-2.265 0-3.555-1.192-4.54-2.8l-3.752 2.165c1.346 2.67 4.113 4.704 8.39 4.704z"/></g></g></svg>