<svg xmlns="http://www.w3.org/2000/svg" width="34" height="34" viewBox="0 0 34 34"><g><g><path fill="#c2c2c2" d="M.5 3.257A2.757 2.757 0 0 1 3.257.5H30.74a2.755 2.755 0 0 1 2.76 2.757V30.74a2.758 2.758 0 0 1-2.759 2.76H3.257A2.758 2.758 0 0 1 .5 30.741zm13.062 25.635h4.812v-7.659c0-2.567.945-4.2 3.217-4.2 1.638 0 2.283 1.515 2.283 4.2v7.659h4.811v-8.733c0-4.715-1.126-7.284-5.88-7.284-2.48 0-4.13 1.161-4.774 2.451v-2.244h-4.469zm-8.25-.206h4.812V12.875H5.312zm4.57-23.112a3.095 3.095 0 1 0-4.327 4.424 3.095 3.095 0 0 0 4.328-4.424z"/></g></g></svg>