<svg xmlns="http://www.w3.org/2000/svg" width="56" height="55" viewBox="0 0 56 55"><g><g><path fill="#c2c2c2" d="M56 0v54.596H0V0zM2.333 52.262h51.332V2.332H2.333zm11.201-39.475c0-.155.33-.273.52-.273 2.005-.084 4.01-.124 6.017-.119 6.471 0 8.986 3.546 8.986 8.085 0 5.935-4.301 8.477-9.57 8.477-.893 0-1.194-.045-1.814-.045v8.969c0 .19-.073.273-.264.273h-3.61c-.191 0-.265-.074-.265-.265zm4.14 12.397c.537.037.965.037 1.895.037 2.724 0 5.295-.966 5.295-4.657 0-2.963-1.841-4.466-4.958-4.466-.92 0-1.804.037-2.233.074zm20.087-2.78c-1.85 0-2.469.929-2.469 1.695 0 .847.42 1.423 2.89 2.699 3.655 1.778 4.812 3.463 4.812 5.969 0 3.727-2.853 5.733-6.699 5.733-2.042 0-3.782-.429-4.785-1.003-.145-.073-.182-.19-.182-.383v-3.427c0-.227.11-.31.265-.19a8.575 8.575 0 0 0 4.693 1.386c1.85 0 2.616-.767 2.616-1.813 0-.847-.537-1.577-2.88-2.807-3.318-1.586-4.704-3.2-4.704-5.898 0-3.008 2.352-5.505 6.426-5.505 2.006 0 3.418.31 4.193.647.19.12.228.31.228.466v3.199c0 .19-.12.31-.347.227-1.04-.61-2.57-1.003-4.065-1.003z"/></g></g></svg>